<mxfile host="app.diagrams.net" modified="2024-03-16T11:33:39.792Z" agent="Mozilla/5.0 (Windows NT 10.0; Win64; x64) AppleWebKit/537.36 (KHTML, like Gecko) Chrome/122.0.0.0 Safari/537.36" version="24.0.4" etag="C0v3j-BNlBq8PTF7H3yH" type="github">
  <diagram name="Page-1" id="FiY7Lag8CAMIkErM197n">
    <mxGraphModel>
      <root>
        <mxCell id="0" />
        <mxCell id="1" parent="0" />
      </root>
    </mxGraphModel>
  </diagram>
</mxfile>
